<svg id="edit" xmlns="http://www.w3.org/2000/svg" viewBox="0 0 19.208 19.209">
  <path id="Path_217" data-name="Path 217" d="M1.606,19.81A1.607,1.607,0,0,1,0,18.2L0,4.6A1.607,1.607,0,0,1,1.607,3h8v.8h-8A.806.806,0,0,0,.8,4.606l0,13.6a.806.806,0,0,0,.805.805l13.6,0a.806.806,0,0,0,.805-.805v-8h.8v8A1.607,1.607,0,0,1,15.2,19.808Z" transform="translate(0 -0.601)"/>
  <path id="Path_218" data-name="Path 218" d="M5.981,14.8,5.51,14.33l.752-3.764a1.2,1.2,0,0,1,.329-.615L15.76.783a2.664,2.664,0,0,1,4.548,1.884,2.647,2.647,0,0,1-.78,1.884L10.359,13.72a1.2,1.2,0,0,1-.614.329ZM17.644.8a1.877,1.877,0,0,0-1.318.546l-9.169,9.17a.392.392,0,0,0-.11.206L6.413,13.9l3.175-.635a.4.4,0,0,0,.2-.11l9.169-9.169A1.864,1.864,0,0,0,17.644.8Z" transform="translate(-1.099 -0.003)"/>
</svg>
