<svg xmlns="http://www.w3.org/2000/svg" viewBox="0 0 12.65 12.65">
  <path id="Path_259" data-name="Path 259" d="M15.1,3.35a.894.894,0,0,0-.638.265L9.678,8.41l-4.8-4.8a.871.871,0,0,0-.631-.265.9.9,0,0,0-.9.9.871.871,0,0,0,.265.631l4.8,4.8-4.8,4.789a.894.894,0,0,0-.265.638.871.871,0,0,0,.265.631A.858.858,0,0,0,4.252,16a.837.837,0,0,0,.631-.265l4.8-4.789,4.789,4.789A.858.858,0,0,0,15.1,16a.9.9,0,0,0,.9-.9.858.858,0,0,0-.265-.638L10.947,9.678l4.789-4.8A.837.837,0,0,0,16,4.252a.858.858,0,0,0-.265-.638A.871.871,0,0,0,15.1,3.35Z" transform="translate(-3.35 -3.35)"/>
</svg>
