<svg xmlns="http://www.w3.org/2000/svg" viewBox="0 0 40 40">
  <defs>
    <style>
      .cls-1 {
        fill: #e84234;
        fill-rule: evenodd;
      }
    </style>
  </defs>
  <g id="spinner" transform="translate(264 35)">
    <g id="Group_59" data-name="Group 59" transform="translate(-268 -39)">
      <path id="Path_258" data-name="Path 258" class="cls-1" d="M24,4a3.151,3.151,0,0,0-3.158,3.158v5.264a3.158,3.158,0,0,0,6.316,0V7.158A3.151,3.151,0,0,0,24,4ZM12.092,8.93a3.161,3.161,0,0,0-2.234,5.395l3.723,3.721a3.157,3.157,0,0,0,4.465-4.465L14.324,9.857A3.147,3.147,0,0,0,12.092,8.93Zm23.816,0a3.147,3.147,0,0,0-2.232.928L29.955,13.58a3.157,3.157,0,1,0,4.465,4.465l3.723-3.721A3.161,3.161,0,0,0,35.908,8.93ZM7.158,20.842a3.158,3.158,0,1,0,0,6.316h5.264a3.158,3.158,0,0,0,0-6.316Zm28.42,0a3.158,3.158,0,0,0,0,6.316h5.264a3.158,3.158,0,0,0,0-6.316ZM15.813,29.027a3.146,3.146,0,0,0-2.232.928L9.857,33.676a3.158,3.158,0,1,0,4.467,4.467l3.721-3.723a3.16,3.16,0,0,0-2.232-5.393Zm16.375,0a3.16,3.16,0,0,0-2.232,5.393l3.721,3.723a3.159,3.159,0,1,0,4.467-4.467L34.42,29.955A3.146,3.146,0,0,0,32.188,29.027ZM24,32.422a3.15,3.15,0,0,0-3.158,3.156v5.264a3.158,3.158,0,0,0,6.316,0V35.578A3.15,3.15,0,0,0,24,32.422Z"/>
    </g>
  </g>
</svg>
