<svg xmlns="http://www.w3.org/2000/svg" viewBox="0 0 63.988 57.668">
  <defs>
    <style>
      .cls-1 {
        fill: #646363;
      }
    </style>
  </defs>
  <g id="upload" transform="translate(-0.506 -3.666)">
    <path id="Path_255" data-name="Path 255" class="cls-1" d="M56.807,30.456V10.291a6.633,6.633,0,0,0-6.625-6.625H7.131A6.633,6.633,0,0,0,.506,10.291V45.483a6.633,6.633,0,0,0,6.625,6.625h25.6A16.777,16.777,0,1,0,56.807,30.456ZM7.131,49.108a3.629,3.629,0,0,1-3.625-3.625V10.291A3.629,3.629,0,0,1,7.131,6.666H50.182a3.629,3.629,0,0,1,3.625,3.625V28.919a16.311,16.311,0,0,0-9-.9l-4.89-3.975c-.007,0-.014-.008-.021-.014a1.431,1.431,0,0,0-.132-.087,1.3,1.3,0,0,0-.123-.075c-.032-.016-.066-.026-.1-.04a1.609,1.609,0,0,0-.175-.066c-.022-.006-.046-.007-.069-.013a1.414,1.414,0,0,0-.213-.036c-.028,0-.058,0-.086,0a1.47,1.47,0,0,0-.2,0c-.036,0-.071.015-.107.021a1.333,1.333,0,0,0-.177.04c-.033.011-.065.027-.1.041a1.437,1.437,0,0,0-.175.078c-.006,0-.013,0-.019.009l-6.792,3.9L23.357,20.29c-.008-.008-.02-.01-.028-.017A1.481,1.481,0,0,0,22.878,20l-.059-.023a1.482,1.482,0,0,0-.5-.08h-.066a1.477,1.477,0,0,0-.49.114c-.023.009-.045.018-.068.029a1.5,1.5,0,0,0-.331.208l-15.289,13a1.5,1.5,0,0,0,1.943,2.285L22.291,23.394,34.251,34.54A16.589,16.589,0,0,0,31.56,49.108H7.131ZM36.25,32.3l-2.521-2.349,5.1-2.928L41.3,29.031A16.84,16.84,0,0,0,36.25,32.3ZM47.7,58.334a13.79,13.79,0,1,1,13.79-13.79A13.806,13.806,0,0,1,47.7,58.334Z"/>
    <path id="Path_256" data-name="Path 256" class="cls-1" d="M11.871,20.932a6.326,6.326,0,1,0-6.326-6.326A6.333,6.333,0,0,0,11.871,20.932Zm0-9.653A3.326,3.326,0,1,1,8.545,14.6,3.33,3.33,0,0,1,11.871,11.279Z"/>
    <path id="Path_257" data-name="Path 257" class="cls-1" d="M48.672,36.147c-.006-.005-.013-.008-.02-.013s-.045-.034-.067-.051-.072-.049-.109-.071-.047-.031-.072-.045-.047-.021-.069-.032c-.039-.018-.078-.032-.118-.047s-.056-.023-.085-.032-.048-.011-.071-.017c-.04-.01-.081-.017-.122-.023s-.06-.012-.09-.015-.056,0-.083,0-.04-.006-.061-.006-.04.005-.061.006-.056,0-.083,0-.06.01-.09.015-.082.014-.122.023c-.023.006-.048.01-.071.017s-.057.021-.085.032-.079.029-.118.047l-.069.032-.073.045c-.037.022-.073.046-.107.071s-.047.032-.068.051-.014.008-.02.013l-6.021,5.085a1.5,1.5,0,1,0,1.935,2.291l3.553-3V51.794a1.5,1.5,0,0,0,3,0V40.523l3.553,3a1.5,1.5,0,1,0,1.935-2.291Z"/>
  </g>
</svg>
