<svg id="view" xmlns="http://www.w3.org/2000/svg" viewBox="0 0 24 15.353">
  <path id="Path_215" data-name="Path 215" d="M26.435,99.681a17.638,17.638,0,0,0-3.724-2.461A10.9,10.9,0,0,0,18,96.07a10.9,10.9,0,0,0-4.711,1.149,17.642,17.642,0,0,0-3.724,2.461,22.8,22.8,0,0,0-3.4,3.556.864.864,0,0,0,0,1.02,22.793,22.793,0,0,0,3.4,3.556,17.639,17.639,0,0,0,3.724,2.461A10.9,10.9,0,0,0,18,111.423a10.9,10.9,0,0,0,4.711-1.149,17.642,17.642,0,0,0,3.724-2.461,22.8,22.8,0,0,0,3.4-3.556.864.864,0,0,0,0-1.02A22.8,22.8,0,0,0,26.435,99.681ZM18,109.7c-4.689,0-8.766-4.423-10.033-5.949C9.235,102.22,13.311,97.8,18,97.8s8.766,4.422,10.033,5.949C26.766,105.273,22.69,109.7,18,109.7Z" transform="translate(-6 -96.07)"/>
  <path id="Path_216" data-name="Path 216" d="M169.368,165a4.368,4.368,0,1,0,4.368,4.368A4.373,4.373,0,0,0,169.368,165Zm0,7.008a2.64,2.64,0,1,1,2.64-2.64A2.643,2.643,0,0,1,169.368,172.008Z" transform="translate(-157.368 -161.691)"/>
</svg>
